<svg width="36" height="35" viewBox="0 0 36 35" fill="none" xmlns="http://www.w3.org/2000/svg">
<path d="M33.5645 13.9453C33.5645 23.5156 19.3744 31.2621 18.7701 31.582C18.6108 31.6677 18.4328 31.7126 18.252 31.7126C18.0711 31.7126 17.8931 31.6677 17.7338 31.582C17.1295 31.2621 2.93945 23.5156 2.93945 13.9453C2.94199 11.698 3.83586 9.54339 5.42498 7.95428C7.01409 6.36516 9.16867 5.47128 11.416 5.46875C14.2393 5.46875 16.7111 6.68281 18.252 8.73496C19.7928 6.68281 22.2646 5.46875 25.0879 5.46875C27.3352 5.47128 29.4898 6.36516 31.0789 7.95428C32.668 9.54339 33.5619 11.698 33.5645 13.9453Z" fill="white"/>
</svg>
